<svg viewBox="0.000000 0.000000 640.000000 640.000000" xmlns="http://www.w3.org/2000/svg">
<line x1="32.000000" y1="205.000000" x2="10.000000" y2="201.000000" stroke="#000000" stroke-width=".1%" />
<line x1="10.000000" y1="201.000000" x2="4.000000" y2="202.000000" stroke="#000000" stroke-width=".1%" />
<line x1="4.000000" y1="202.000000" x2="2.000000" y2="207.000000" stroke="#000000" stroke-width=".1%" />
<line x1="2.000000" y1="207.000000" x2="4.000000" y2="212.000000" stroke="#000000" stroke-width=".1%" />
<line x1="4.000000" y1="212.000000" x2="6.000000" y2="215.000000" stroke="#000000" stroke-width=".1%" />
<line x1="6.000000" y1="215.000000" x2="10.000000" y2="220.000000" stroke="#000000" stroke-width=".1%" />
<line x1="10.000000" y1="220.000000" x2="15.000000" y2="224.000000" stroke="#000000" stroke-width=".1%" />
<line x1="15.000000" y1="224.000000" x2="21.000000" y2="227.000000" stroke="#000000" stroke-width=".1%" />
<line x1="21.000000" y1="227.000000" x2="30.000000" y2="232.000000" stroke="#000000" stroke-width=".1%" />
<line x1="30.000000" y1="232.000000" x2="42.000000" y2="234.000000" stroke="#000000" stroke-width=".1%" />
<line x1="42.000000" y1="234.000000" x2="47.000000" y2="237.000000" stroke="#000000" stroke-width=".1%" />
<line x1="47.000000" y1="237.000000" x2="56.000000" y2="242.000000" stroke="#000000" stroke-width=".1%" />
<line x1="56.000000" y1="242.000000" x2="63.000000" y2="249.000000" stroke="#000000" stroke-width=".1%" />
<line x1="63.000000" y1="249.000000" x2="71.000000" y2="257.000000" stroke="#000000" stroke-width=".1%" />
<line x1="71.000000" y1="257.000000" x2="79.000000" y2="271.000000" stroke="#000000" stroke-width=".1%" />
<line x1="79.000000" y1="271.000000" x2="84.000000" y2="284.000000" stroke="#000000" stroke-width=".1%" />
<line x1="84.000000" y1="284.000000" x2="87.000000" y2="303.000000" stroke="#000000" stroke-width=".1%" />
<line x1="87.000000" y1="303.000000" x2="89.000000" y2="324.000000" stroke="#000000" stroke-width=".1%" />
<line x1="89.000000" y1="324.000000" x2="88.000000" y2="338.000000" stroke="#000000" stroke-width=".1%" />
<line x1="88.000000" y1="338.000000" x2="86.000000" y2="346.000000" stroke="#000000" stroke-width=".1%" />
<line x1="86.000000" y1="346.000000" x2="83.000000" y2="362.000000" stroke="#000000" stroke-width=".1%" />
<line x1="83.000000" y1="362.000000" x2="79.000000" y2="384.000000" stroke="#000000" stroke-width=".1%" />
<line x1="79.000000" y1="384.000000" x2="78.000000" y2="405.000000" stroke="#000000" stroke-width=".1%" />
<line x1="78.000000" y1="405.000000" x2="79.000000" y2="420.000000" stroke="#000000" stroke-width=".1%" />
<line x1="79.000000" y1="420.000000" x2="85.000000" y2="436.000000" stroke="#000000" stroke-width=".1%" />
<line x1="85.000000" y1="436.000000" x2="94.000000" y2="450.000000" stroke="#000000" stroke-width=".1%" />
<line x1="94.000000" y1="450.000000" x2="98.000000" y2="457.000000" stroke="#000000" stroke-width=".1%" />
<line x1="98.000000" y1="457.000000" x2="98.000000" y2="458.000000" stroke="#000000" stroke-width=".1%" />
<line x1="116.000000" y1="451.000000" x2="105.000000" y2="456.000000" stroke="#000000" stroke-width=".1%" />
<line x1="105.000000" y1="456.000000" x2="98.000000" y2="468.000000" stroke="#000000" stroke-width=".1%" />
<line x1="98.000000" y1="468.000000" x2="98.000000" y2="484.000000" stroke="#000000" stroke-width=".1%" />
<line x1="98.000000" y1="484.000000" x2="93.000000" y2="499.000000" stroke="#000000" stroke-width=".1%" />
<line x1="93.000000" y1="499.000000" x2="93.000000" y2="508.000000" stroke="#000000" stroke-width=".1%" />
<line x1="93.000000" y1="508.000000" x2="99.000000" y2="518.000000" stroke="#000000" stroke-width=".1%" />
<line x1="99.000000" y1="518.000000" x2="104.000000" y2="525.000000" stroke="#000000" stroke-width=".1%" />
<line x1="104.000000" y1="525.000000" x2="104.000000" y2="526.000000" stroke="#000000" stroke-width=".1%" />
<line x1="153.000000" y1="524.000000" x2="152.000000" y2="528.000000" stroke="#000000" stroke-width=".1%" />
<line x1="152.000000" y1="528.000000" x2="153.000000" y2="533.000000" stroke="#000000" stroke-width=".1%" />
<line x1="153.000000" y1="533.000000" x2="154.000000" y2="547.000000" stroke="#000000" stroke-width=".1%" />
<line x1="154.000000" y1="547.000000" x2="154.000000" y2="559.000000" stroke="#000000" stroke-width=".1%" />
<line x1="154.000000" y1="559.000000" x2="152.000000" y2="573.000000" stroke="#000000" stroke-width=".1%" />
<line x1="152.000000" y1="573.000000" x2="146.000000" y2="584.000000" stroke="#000000" stroke-width=".1%" />
<line x1="146.000000" y1="584.000000" x2="140.000000" y2="593.000000" stroke="#000000" stroke-width=".1%" />
<line x1="140.000000" y1="593.000000" x2="136.000000" y2="601.000000" stroke="#000000" stroke-width=".1%" />
<line x1="136.000000" y1="601.000000" x2="133.000000" y2="610.000000" stroke="#000000" stroke-width=".1%" />
<line x1="133.000000" y1="610.000000" x2="130.000000" y2="623.000000" stroke="#000000" stroke-width=".1%" />
<line x1="130.000000" y1="623.000000" x2="128.000000" y2="633.000000" stroke="#000000" stroke-width=".1%" />
<line x1="128.000000" y1="633.000000" x2="127.000000" y2="637.000000" stroke="#000000" stroke-width=".1%" />
<line x1="127.000000" y1="637.000000" x2="93.000000" y2="638.000000" stroke="#000000" stroke-width=".1%" />
<line x1="93.000000" y1="638.000000" x2="93.000000" y2="630.000000" stroke="#000000" stroke-width=".1%" />
<line x1="93.000000" y1="630.000000" x2="96.000000" y2="624.000000" stroke="#000000" stroke-width=".1%" />
<line x1="96.000000" y1="624.000000" x2="96.000000" y2="620.000000" stroke="#000000" stroke-width=".1%" />
<line x1="96.000000" y1="620.000000" x2="97.000000" y2="619.000000" stroke="#000000" stroke-width=".1%" />
<line x1="97.000000" y1="619.000000" x2="101.000000" y2="616.000000" stroke="#000000" stroke-width=".1%" />
<line x1="101.000000" y1="616.000000" x2="104.000000" y2="613.000000" stroke="#000000" stroke-width=".1%" />
<line x1="104.000000" y1="613.000000" x2="105.000000" y2="609.000000" stroke="#000000" stroke-width=".1%" />
<line x1="105.000000" y1="609.000000" x2="107.000000" y2="604.000000" stroke="#000000" stroke-width=".1%" />
<line x1="107.000000" y1="604.000000" x2="108.000000" y2="600.000000" stroke="#000000" stroke-width=".1%" />
<line x1="108.000000" y1="600.000000" x2="109.000000" y2="593.000000" stroke="#000000" stroke-width=".1%" />
<line x1="109.000000" y1="593.000000" x2="111.000000" y2="589.000000" stroke="#000000" stroke-width=".1%" />
<line x1="111.000000" y1="589.000000" x2="114.000000" y2="582.000000" stroke="#000000" stroke-width=".1%" />
<line x1="114.000000" y1="582.000000" x2="118.000000" y2="574.000000" stroke="#000000" stroke-width=".1%" />
<line x1="118.000000" y1="574.000000" x2="120.000000" y2="569.000000" stroke="#000000" stroke-width=".1%" />
<line x1="120.000000" y1="569.000000" x2="118.000000" y2="561.000000" stroke="#000000" stroke-width=".1%" />
<line x1="118.000000" y1="561.000000" x2="117.000000" y2="552.000000" stroke="#000000" stroke-width=".1%" />
<line x1="117.000000" y1="552.000000" x2="116.000000" y2="543.000000" stroke="#000000" stroke-width=".1%" />
<line x1="116.000000" y1="543.000000" x2="112.000000" y2="535.000000" stroke="#000000" stroke-width=".1%" />
<line x1="112.000000" y1="535.000000" x2="107.000000" y2="527.000000" stroke="#000000" stroke-width=".1%" />
<line x1="107.000000" y1="527.000000" x2="107.000000" y2="522.000000" stroke="#000000" stroke-width=".1%" />
<line x1="107.000000" y1="522.000000" x2="108.000000" y2="514.000000" stroke="#000000" stroke-width=".1%" />
<line x1="108.000000" y1="514.000000" x2="112.000000" y2="502.000000" stroke="#000000" stroke-width=".1%" />
<line x1="112.000000" y1="502.000000" x2="116.000000" y2="494.000000" stroke="#000000" stroke-width=".1%" />
<line x1="116.000000" y1="494.000000" x2="118.000000" y2="492.000000" stroke="#000000" stroke-width=".1%" />
<line x1="153.000000" y1="545.000000" x2="158.000000" y2="541.000000" stroke="#000000" stroke-width=".1%" />
<line x1="158.000000" y1="541.000000" x2="159.000000" y2="537.000000" stroke="#000000" stroke-width=".1%" />
<line x1="159.000000" y1="537.000000" x2="161.000000" y2="532.000000" stroke="#000000" stroke-width=".1%" />
<line x1="161.000000" y1="532.000000" x2="161.000000" y2="525.000000" stroke="#000000" stroke-width=".1%" />
<line x1="161.000000" y1="525.000000" x2="160.000000" y2="519.000000" stroke="#000000" stroke-width=".1%" />
<line x1="160.000000" y1="519.000000" x2="160.000000" y2="518.000000" stroke="#000000" stroke-width=".1%" />
<line x1="156.000000" y1="560.000000" x2="167.000000" y2="561.000000" stroke="#000000" stroke-width=".1%" />
<line x1="167.000000" y1="561.000000" x2="182.000000" y2="564.000000" stroke="#000000" stroke-width=".1%" />
<line x1="182.000000" y1="564.000000" x2="203.000000" y2="567.000000" stroke="#000000" stroke-width=".1%" />
<line x1="203.000000" y1="567.000000" x2="220.000000" y2="562.000000" stroke="#000000" stroke-width=".1%" />
<line x1="220.000000" y1="562.000000" x2="235.000000" y2="561.000000" stroke="#000000" stroke-width=".1%" />
<line x1="235.000000" y1="561.000000" x2="239.000000" y2="560.000000" stroke="#000000" stroke-width=".1%" />
<line x1="262.000000" y1="486.000000" x2="259.000000" y2="499.000000" stroke="#000000" stroke-width=".1%" />
<line x1="259.000000" y1="499.000000" x2="259.000000" y2="517.000000" stroke="#000000" stroke-width=".1%" />
<line x1="259.000000" y1="517.000000" x2="257.000000" y2="530.000000" stroke="#000000" stroke-width=".1%" />
<line x1="257.000000" y1="530.000000" x2="255.000000" y2="547.000000" stroke="#000000" stroke-width=".1%" />
<line x1="255.000000" y1="547.000000" x2="259.000000" y2="554.000000" stroke="#000000" stroke-width=".1%" />
<line x1="259.000000" y1="554.000000" x2="272.000000" y2="566.000000" stroke="#000000" stroke-width=".1%" />
<line x1="272.000000" y1="566.000000" x2="287.000000" y2="594.000000" stroke="#000000" stroke-width=".1%" />
<line x1="287.000000" y1="594.000000" x2="290.000000" y2="599.000000" stroke="#000000" stroke-width=".1%" />
<line x1="290.000000" y1="599.000000" x2="299.000000" y2="610.000000" stroke="#000000" stroke-width=".1%" />
<line x1="299.000000" y1="610.000000" x2="305.000000" y2="619.000000" stroke="#000000" stroke-width=".1%" />
<line x1="305.000000" y1="619.000000" x2="307.000000" y2="625.000000" stroke="#000000" stroke-width=".1%" />
<line x1="307.000000" y1="625.000000" x2="307.000000" y2="628.000000" stroke="#000000" stroke-width=".1%" />
<line x1="307.000000" y1="628.000000" x2="300.000000" y2="629.000000" stroke="#000000" stroke-width=".1%" />
<line x1="300.000000" y1="629.000000" x2="299.000000" y2="631.000000" stroke="#000000" stroke-width=".1%" />
<line x1="299.000000" y1="631.000000" x2="301.000000" y2="638.000000" stroke="#000000" stroke-width=".1%" />
<line x1="301.000000" y1="638.000000" x2="303.000000" y2="639.000000" stroke="#000000" stroke-width=".1%" />
<line x1="303.000000" y1="639.000000" x2="313.000000" y2="635.000000" stroke="#000000" stroke-width=".1%" />
<line x1="313.000000" y1="635.000000" x2="320.000000" y2="633.000000" stroke="#000000" stroke-width=".1%" />
<line x1="320.000000" y1="633.000000" x2="307.000000" y2="639.000000" stroke="#000000" stroke-width=".1%" />
<line x1="307.000000" y1="639.000000" x2="312.000000" y2="640.000000" stroke="#000000" stroke-width=".1%" />
<line x1="312.000000" y1="640.000000" x2="321.000000" y2="640.000000" stroke="#000000" stroke-width=".1%" />
<line x1="321.000000" y1="640.000000" x2="325.000000" y2="640.000000" stroke="#000000" stroke-width=".1%" />
<line x1="325.000000" y1="640.000000" x2="331.000000" y2="640.000000" stroke="#000000" stroke-width=".1%" />
<line x1="331.000000" y1="640.000000" x2="336.000000" y2="638.000000" stroke="#000000" stroke-width=".1%" />
<line x1="336.000000" y1="638.000000" x2="336.000000" y2="632.000000" stroke="#000000" stroke-width=".1%" />
<line x1="336.000000" y1="632.000000" x2="334.000000" y2="622.000000" stroke="#000000" stroke-width=".1%" />
<line x1="334.000000" y1="622.000000" x2="335.000000" y2="616.000000" stroke="#000000" stroke-width=".1%" />
<line x1="335.000000" y1="616.000000" x2="331.000000" y2="611.000000" stroke="#000000" stroke-width=".1%" />
<line x1="331.000000" y1="611.000000" x2="327.000000" y2="601.000000" stroke="#000000" stroke-width=".1%" />
<line x1="327.000000" y1="601.000000" x2="323.000000" y2="595.000000" stroke="#000000" stroke-width=".1%" />
<line x1="323.000000" y1="595.000000" x2="317.000000" y2="586.000000" stroke="#000000" stroke-width=".1%" />
<line x1="317.000000" y1="586.000000" x2="312.000000" y2="577.000000" stroke="#000000" stroke-width=".1%" />
<line x1="312.000000" y1="577.000000" x2="308.000000" y2="570.000000" stroke="#000000" stroke-width=".1%" />
<line x1="308.000000" y1="570.000000" x2="301.000000" y2="561.000000" stroke="#000000" stroke-width=".1%" />
<line x1="301.000000" y1="561.000000" x2="297.000000" y2="554.000000" stroke="#000000" stroke-width=".1%" />
<line x1="297.000000" y1="554.000000" x2="296.000000" y2="543.000000" stroke="#000000" stroke-width=".1%" />
<line x1="296.000000" y1="543.000000" x2="300.000000" y2="531.000000" stroke="#000000" stroke-width=".1%" />
<line x1="300.000000" y1="531.000000" x2="303.000000" y2="520.000000" stroke="#000000" stroke-width=".1%" />
<line x1="303.000000" y1="520.000000" x2="304.000000" y2="514.000000" stroke="#000000" stroke-width=".1%" />
<line x1="304.000000" y1="514.000000" x2="307.000000" y2="502.000000" stroke="#000000" stroke-width=".1%" />
<line x1="307.000000" y1="502.000000" x2="306.000000" y2="492.000000" stroke="#000000" stroke-width=".1%" />
<line x1="306.000000" y1="492.000000" x2="305.000000" y2="488.000000" stroke="#000000" stroke-width=".1%" />
<line x1="298.000000" y1="554.000000" x2="304.000000" y2="548.000000" stroke="#000000" stroke-width=".1%" />
<line x1="304.000000" y1="548.000000" x2="310.000000" y2="536.000000" stroke="#000000" stroke-width=".1%" />
<line x1="310.000000" y1="536.000000" x2="314.000000" y2="526.000000" stroke="#000000" stroke-width=".1%" />
<line x1="314.000000" y1="526.000000" x2="314.000000" y2="521.000000" stroke="#000000" stroke-width=".1%" />
<line x1="255.000000" y1="542.000000" x2="251.000000" y2="540.000000" stroke="#000000" stroke-width=".1%" />
<line x1="251.000000" y1="540.000000" x2="246.000000" y2="535.000000" stroke="#000000" stroke-width=".1%" />
<line x1="246.000000" y1="535.000000" x2="242.000000" y2="528.000000" stroke="#000000" stroke-width=".1%" />
<line x1="242.000000" y1="528.000000" x2="236.000000" y2="518.000000" stroke="#000000" stroke-width=".1%" />
<line x1="236.000000" y1="518.000000" x2="231.000000" y2="509.000000" stroke="#000000" stroke-width=".1%" />
<line x1="231.000000" y1="509.000000" x2="233.000000" y2="514.000000" stroke="#000000" stroke-width=".1%" />
<line x1="271.000000" y1="567.000000" x2="264.000000" y2="566.000000" stroke="#000000" stroke-width=".1%" />
<line x1="264.000000" y1="566.000000" x2="257.000000" y2="564.000000" stroke="#000000" stroke-width=".1%" />
<line x1="257.000000" y1="564.000000" x2="244.000000" y2="564.000000" stroke="#000000" stroke-width=".1%" />
<line x1="244.000000" y1="564.000000" x2="236.000000" y2="560.000000" stroke="#000000" stroke-width=".1%" />
<line x1="236.000000" y1="560.000000" x2="231.000000" y2="556.000000" stroke="#000000" stroke-width=".1%" />
<line x1="231.000000" y1="556.000000" x2="230.000000" y2="554.000000" stroke="#000000" stroke-width=".1%" />
<line x1="242.000000" y1="563.000000" x2="242.000000" y2="570.000000" stroke="#000000" stroke-width=".1%" />
<line x1="242.000000" y1="570.000000" x2="245.000000" y2="579.000000" stroke="#000000" stroke-width=".1%" />
<line x1="245.000000" y1="579.000000" x2="246.000000" y2="591.000000" stroke="#000000" stroke-width=".1%" />
<line x1="246.000000" y1="591.000000" x2="248.000000" y2="601.000000" stroke="#000000" stroke-width=".1%" />
<line x1="248.000000" y1="601.000000" x2="249.000000" y2="610.000000" stroke="#000000" stroke-width=".1%" />
<line x1="249.000000" y1="610.000000" x2="248.000000" y2="621.000000" stroke="#000000" stroke-width=".1%" />
<line x1="248.000000" y1="621.000000" x2="245.000000" y2="628.000000" stroke="#000000" stroke-width=".1%" />
<line x1="245.000000" y1="628.000000" x2="242.000000" y2="631.000000" stroke="#000000" stroke-width=".1%" />
<line x1="242.000000" y1="631.000000" x2="241.000000" y2="634.000000" stroke="#000000" stroke-width=".1%" />
<line x1="241.000000" y1="634.000000" x2="243.000000" y2="639.000000" stroke="#000000" stroke-width=".1%" />
<line x1="243.000000" y1="639.000000" x2="256.000000" y2="637.000000" stroke="#000000" stroke-width=".1%" />
<line x1="256.000000" y1="637.000000" x2="259.000000" y2="638.000000" stroke="#000000" stroke-width=".1%" />
<line x1="259.000000" y1="638.000000" x2="266.000000" y2="637.000000" stroke="#000000" stroke-width=".1%" />
<line x1="266.000000" y1="637.000000" x2="271.000000" y2="636.000000" stroke="#000000" stroke-width=".1%" />
<line x1="271.000000" y1="636.000000" x2="274.000000" y2="631.000000" stroke="#000000" stroke-width=".1%" />
<line x1="274.000000" y1="631.000000" x2="277.000000" y2="624.000000" stroke="#000000" stroke-width=".1%" />
<line x1="277.000000" y1="624.000000" x2="277.000000" y2="616.000000" stroke="#000000" stroke-width=".1%" />
<line x1="277.000000" y1="616.000000" x2="277.000000" y2="609.000000" stroke="#000000" stroke-width=".1%" />
<line x1="277.000000" y1="609.000000" x2="277.000000" y2="599.000000" stroke="#000000" stroke-width=".1%" />
<line x1="277.000000" y1="599.000000" x2="277.000000" y2="592.000000" stroke="#000000" stroke-width=".1%" />
<line x1="277.000000" y1="592.000000" x2="278.000000" y2="583.000000" stroke="#000000" stroke-width=".1%" />
<line x1="278.000000" y1="583.000000" x2="278.000000" y2="578.000000" stroke="#000000" stroke-width=".1%" />
<line x1="278.000000" y1="578.000000" x2="278.000000" y2="574.000000" stroke="#000000" stroke-width=".1%" />
<line x1="190.000000" y1="567.000000" x2="191.000000" y2="576.000000" stroke="#000000" stroke-width=".1%" />
<line x1="191.000000" y1="576.000000" x2="193.000000" y2="589.000000" stroke="#000000" stroke-width=".1%" />
<line x1="193.000000" y1="589.000000" x2="194.000000" y2="601.000000" stroke="#000000" stroke-width=".1%" />
<line x1="194.000000" y1="601.000000" x2="191.000000" y2="615.000000" stroke="#000000" stroke-width=".1%" />
<line x1="191.000000" y1="615.000000" x2="189.000000" y2="623.000000" stroke="#000000" stroke-width=".1%" />
<line x1="189.000000" y1="623.000000" x2="185.000000" y2="633.000000" stroke="#000000" stroke-width=".1%" />
<line x1="185.000000" y1="633.000000" x2="184.000000" y2="635.000000" stroke="#000000" stroke-width=".1%" />
<line x1="184.000000" y1="635.000000" x2="177.000000" y2="636.000000" stroke="#000000" stroke-width=".1%" />
<line x1="177.000000" y1="636.000000" x2="169.000000" y2="636.000000" stroke="#000000" stroke-width=".1%" />
<line x1="169.000000" y1="636.000000" x2="166.000000" y2="636.000000" stroke="#000000" stroke-width=".1%" />
<line x1="166.000000" y1="636.000000" x2="159.000000" y2="635.000000" stroke="#000000" stroke-width=".1%" />
<line x1="159.000000" y1="635.000000" x2="159.000000" y2="634.000000" stroke="#000000" stroke-width=".1%" />
<line x1="159.000000" y1="634.000000" x2="162.000000" y2="621.000000" stroke="#000000" stroke-width=".1%" />
<line x1="162.000000" y1="621.000000" x2="163.000000" y2="615.000000" stroke="#000000" stroke-width=".1%" />
<line x1="163.000000" y1="615.000000" x2="165.000000" y2="608.000000" stroke="#000000" stroke-width=".1%" />
<line x1="165.000000" y1="608.000000" x2="165.000000" y2="601.000000" stroke="#000000" stroke-width=".1%" />
<line x1="165.000000" y1="601.000000" x2="165.000000" y2="593.000000" stroke="#000000" stroke-width=".1%" />
<line x1="165.000000" y1="593.000000" x2="165.000000" y2="583.000000" stroke="#000000" stroke-width=".1%" />
<line x1="165.000000" y1="583.000000" x2="162.000000" y2="575.000000" stroke="#000000" stroke-width=".1%" />
<line x1="162.000000" y1="575.000000" x2="161.000000" y2="570.000000" stroke="#000000" stroke-width=".1%" />
<line x1="161.000000" y1="570.000000" x2="159.000000" y2="565.000000" stroke="#000000" stroke-width=".1%" />
<line x1="159.000000" y1="565.000000" x2="158.000000" y2="562.000000" stroke="#000000" stroke-width=".1%" />
<line x1="158.000000" y1="562.000000" x2="157.000000" y2="560.000000" stroke="#000000" stroke-width=".1%" />
<line x1="96.000000" y1="483.000000" x2="93.000000" y2="477.000000" stroke="#000000" stroke-width=".1%" />
<line x1="93.000000" y1="477.000000" x2="88.000000" y2="464.000000" stroke="#000000" stroke-width=".1%" />
<line x1="88.000000" y1="464.000000" x2="82.000000" y2="456.000000" stroke="#000000" stroke-width=".1%" />
<line x1="82.000000" y1="456.000000" x2="78.000000" y2="447.000000" stroke="#000000" stroke-width=".1%" />
<line x1="78.000000" y1="447.000000" x2="75.000000" y2="439.000000" stroke="#000000" stroke-width=".1%" />
<line x1="75.000000" y1="439.000000" x2="72.000000" y2="428.000000" stroke="#000000" stroke-width=".1%" />
<line x1="72.000000" y1="428.000000" x2="72.000000" y2="416.000000" stroke="#000000" stroke-width=".1%" />
<line x1="72.000000" y1="416.000000" x2="72.000000" y2="402.000000" stroke="#000000" stroke-width=".1%" />
<line x1="72.000000" y1="402.000000" x2="73.000000" y2="386.000000" stroke="#000000" stroke-width=".1%" />
<line x1="73.000000" y1="386.000000" x2="75.000000" y2="373.000000" stroke="#000000" stroke-width=".1%" />
<line x1="75.000000" y1="373.000000" x2="78.000000" y2="363.000000" stroke="#000000" stroke-width=".1%" />
<line x1="78.000000" y1="363.000000" x2="82.000000" y2="354.000000" stroke="#000000" stroke-width=".1%" />
<line x1="82.000000" y1="354.000000" x2="89.000000" y2="342.000000" stroke="#000000" stroke-width=".1%" />
<line x1="89.000000" y1="342.000000" x2="89.000000" y2="340.000000" stroke="#000000" stroke-width=".1%" />
<line x1="33.000000" y1="212.000000" x2="33.000000" y2="212.000000" stroke="#000000" stroke-width=".1%" />
<line x1="33.000000" y1="212.000000" x2="33.000000" y2="213.000000" stroke="#000000" stroke-width=".1%" />
<line x1="33.000000" y1="213.000000" x2="35.000000" y2="214.000000" stroke="#000000" stroke-width=".1%" />
<line x1="35.000000" y1="214.000000" x2="36.000000" y2="215.000000" stroke="#000000" stroke-width=".1%" />
<line x1="36.000000" y1="215.000000" x2="30.000000" y2="213.000000" stroke="#000000" stroke-width=".1%" />
<line x1="30.000000" y1="213.000000" x2="27.000000" y2="212.000000" stroke="#000000" stroke-width=".1%" />
<line x1="27.000000" y1="212.000000" x2="27.000000" y2="212.000000" stroke="#000000" stroke-width=".1%" />
<line x1="27.000000" y1="212.000000" x2="28.000000" y2="212.000000" stroke="#000000" stroke-width=".1%" />
<line x1="2.000000" y1="205.000000" x2="5.000000" y2="206.000000" stroke="#000000" stroke-width=".1%" />
<line x1="5.000000" y1="206.000000" x2="10.000000" y2="208.000000" stroke="#000000" stroke-width=".1%" />
<line x1="10.000000" y1="208.000000" x2="13.000000" y2="209.000000" stroke="#000000" stroke-width=".1%" />
<line x1="13.000000" y1="209.000000" x2="16.000000" y2="211.000000" stroke="#000000" stroke-width=".1%" />
<line x1="16.000000" y1="211.000000" x2="19.000000" y2="213.000000" stroke="#000000" stroke-width=".1%" />
<line x1="19.000000" y1="213.000000" x2="21.000000" y2="214.000000" stroke="#000000" stroke-width=".1%" />
<line x1="21.000000" y1="214.000000" x2="22.000000" y2="215.000000" stroke="#000000" stroke-width=".1%" />
<line x1="22.000000" y1="215.000000" x2="24.000000" y2="216.000000" stroke="#000000" stroke-width=".1%" />
<line x1="24.000000" y1="216.000000" x2="26.000000" y2="217.000000" stroke="#000000" stroke-width=".1%" />
<line x1="26.000000" y1="217.000000" x2="27.000000" y2="217.000000" stroke="#000000" stroke-width=".1%" />
<line x1="27.000000" y1="217.000000" x2="30.000000" y2="218.000000" stroke="#000000" stroke-width=".1%" />
<line x1="30.000000" y1="218.000000" x2="33.000000" y2="218.000000" stroke="#000000" stroke-width=".1%" />
<line x1="33.000000" y1="218.000000" x2="34.000000" y2="219.000000" stroke="#000000" stroke-width=".1%" />
<line x1="34.000000" y1="219.000000" x2="36.000000" y2="220.000000" stroke="#000000" stroke-width=".1%" />
<line x1="36.000000" y1="220.000000" x2="36.000000" y2="221.000000" stroke="#000000" stroke-width=".1%" />
<line x1="32.000000" y1="204.000000" x2="55.000000" y2="217.000000" stroke="#000000" stroke-width=".1%" />
<line x1="55.000000" y1="217.000000" x2="67.000000" y2="225.000000" stroke="#000000" stroke-width=".1%" />
<line x1="67.000000" y1="225.000000" x2="75.000000" y2="231.000000" stroke="#000000" stroke-width=".1%" />
<line x1="75.000000" y1="231.000000" x2="86.000000" y2="239.000000" stroke="#000000" stroke-width=".1%" />
<line x1="86.000000" y1="239.000000" x2="92.000000" y2="245.000000" stroke="#000000" stroke-width=".1%" />
<line x1="92.000000" y1="245.000000" x2="98.000000" y2="251.000000" stroke="#000000" stroke-width=".1%" />
<line x1="98.000000" y1="251.000000" x2="105.000000" y2="262.000000" stroke="#000000" stroke-width=".1%" />
<line x1="105.000000" y1="262.000000" x2="107.000000" y2="268.000000" stroke="#000000" stroke-width=".1%" />
<line x1="107.000000" y1="268.000000" x2="111.000000" y2="278.000000" stroke="#000000" stroke-width=".1%" />
<line x1="111.000000" y1="278.000000" x2="112.000000" y2="285.000000" stroke="#000000" stroke-width=".1%" />
<line x1="112.000000" y1="285.000000" x2="116.000000" y2="295.000000" stroke="#000000" stroke-width=".1%" />
<line x1="116.000000" y1="295.000000" x2="119.000000" y2="302.000000" stroke="#000000" stroke-width=".1%" />
<line x1="119.000000" y1="302.000000" x2="121.000000" y2="312.000000" stroke="#000000" stroke-width=".1%" />
<line x1="121.000000" y1="312.000000" x2="124.000000" y2="323.000000" stroke="#000000" stroke-width=".1%" />
<line x1="124.000000" y1="323.000000" x2="125.000000" y2="328.000000" stroke="#000000" stroke-width=".1%" />
<line x1="125.000000" y1="328.000000" x2="125.000000" y2="336.000000" stroke="#000000" stroke-width=".1%" />
<line x1="125.000000" y1="336.000000" x2="126.000000" y2="346.000000" stroke="#000000" stroke-width=".1%" />
<line x1="126.000000" y1="346.000000" x2="125.000000" y2="352.000000" stroke="#000000" stroke-width=".1%" />
<line x1="125.000000" y1="352.000000" x2="124.000000" y2="360.000000" stroke="#000000" stroke-width=".1%" />
<line x1="124.000000" y1="360.000000" x2="125.000000" y2="363.000000" stroke="#000000" stroke-width=".1%" />
<line x1="125.000000" y1="363.000000" x2="125.000000" y2="382.000000" stroke="#000000" stroke-width=".1%" />
<line x1="125.000000" y1="382.000000" x2="124.000000" y2="385.000000" stroke="#000000" stroke-width=".1%" />
<line x1="124.000000" y1="385.000000" x2="125.000000" y2="399.000000" stroke="#000000" stroke-width=".1%" />
<line x1="125.000000" y1="399.000000" x2="128.000000" y2="405.000000" stroke="#000000" stroke-width=".1%" />
<line x1="128.000000" y1="405.000000" x2="135.000000" y2="415.000000" stroke="#000000" stroke-width=".1%" />
<line x1="135.000000" y1="415.000000" x2="141.000000" y2="422.000000" stroke="#000000" stroke-width=".1%" />
<line x1="141.000000" y1="422.000000" x2="147.000000" y2="429.000000" stroke="#000000" stroke-width=".1%" />
<line x1="147.000000" y1="429.000000" x2="155.000000" y2="432.000000" stroke="#000000" stroke-width=".1%" />
<line x1="155.000000" y1="432.000000" x2="166.000000" y2="435.000000" stroke="#000000" stroke-width=".1%" />
<line x1="166.000000" y1="435.000000" x2="178.000000" y2="437.000000" stroke="#000000" stroke-width=".1%" />
<line x1="178.000000" y1="437.000000" x2="194.000000" y2="438.000000" stroke="#000000" stroke-width=".1%" />
<line x1="194.000000" y1="438.000000" x2="209.000000" y2="437.000000" stroke="#000000" stroke-width=".1%" />
<line x1="209.000000" y1="437.000000" x2="219.000000" y2="436.000000" stroke="#000000" stroke-width=".1%" />
<line x1="219.000000" y1="436.000000" x2="232.000000" y2="435.000000" stroke="#000000" stroke-width=".1%" />
<line x1="232.000000" y1="435.000000" x2="249.000000" y2="434.000000" stroke="#000000" stroke-width=".1%" />
<line x1="249.000000" y1="434.000000" x2="259.000000" y2="433.000000" stroke="#000000" stroke-width=".1%" />
<line x1="259.000000" y1="433.000000" x2="284.000000" y2="435.000000" stroke="#000000" stroke-width=".1%" />
<line x1="284.000000" y1="435.000000" x2="300.000000" y2="442.000000" stroke="#000000" stroke-width=".1%" />
<line x1="300.000000" y1="442.000000" x2="317.000000" y2="451.000000" stroke="#000000" stroke-width=".1%" />
<line x1="317.000000" y1="451.000000" x2="333.000000" y2="458.000000" stroke="#000000" stroke-width=".1%" />
<line x1="333.000000" y1="458.000000" x2="345.000000" y2="470.000000" stroke="#000000" stroke-width=".1%" />
<line x1="345.000000" y1="470.000000" x2="362.000000" y2="487.000000" stroke="#000000" stroke-width=".1%" />
<line x1="362.000000" y1="487.000000" x2="392.000000" y2="505.000000" stroke="#000000" stroke-width=".1%" />
<line x1="392.000000" y1="505.000000" x2="430.000000" y2="522.000000" stroke="#000000" stroke-width=".1%" />
<line x1="430.000000" y1="522.000000" x2="450.000000" y2="536.000000" stroke="#000000" stroke-width=".1%" />
<line x1="450.000000" y1="536.000000" x2="477.000000" y2="549.000000" stroke="#000000" stroke-width=".1%" />
<line x1="477.000000" y1="549.000000" x2="509.000000" y2="565.000000" stroke="#000000" stroke-width=".1%" />
<line x1="509.000000" y1="565.000000" x2="539.000000" y2="575.000000" stroke="#000000" stroke-width=".1%" />
<line x1="539.000000" y1="575.000000" x2="567.000000" y2="579.000000" stroke="#000000" stroke-width=".1%" />
<line x1="567.000000" y1="579.000000" x2="599.000000" y2="580.000000" stroke="#000000" stroke-width=".1%" />
<line x1="599.000000" y1="580.000000" x2="625.000000" y2="581.000000" stroke="#000000" stroke-width=".1%" />
<line x1="625.000000" y1="581.000000" x2="635.000000" y2="582.000000" stroke="#000000" stroke-width=".1%" />
<line x1="635.000000" y1="582.000000" x2="632.000000" y2="586.000000" stroke="#000000" stroke-width=".1%" />
<line x1="632.000000" y1="586.000000" x2="616.000000" y2="589.000000" stroke="#000000" stroke-width=".1%" />
<line x1="616.000000" y1="589.000000" x2="602.000000" y2="594.000000" stroke="#000000" stroke-width=".1%" />
<line x1="602.000000" y1="594.000000" x2="593.000000" y2="594.000000" stroke="#000000" stroke-width=".1%" />
<line x1="593.000000" y1="594.000000" x2="580.000000" y2="595.000000" stroke="#000000" stroke-width=".1%" />
<line x1="580.000000" y1="595.000000" x2="565.000000" y2="599.000000" stroke="#000000" stroke-width=".1%" />
<line x1="565.000000" y1="599.000000" x2="546.000000" y2="602.000000" stroke="#000000" stroke-width=".1%" />
<line x1="546.000000" y1="602.000000" x2="526.000000" y2="604.000000" stroke="#000000" stroke-width=".1%" />
<line x1="526.000000" y1="604.000000" x2="502.000000" y2="598.000000" stroke="#000000" stroke-width=".1%" />
<line x1="502.000000" y1="598.000000" x2="487.000000" y2="592.000000" stroke="#000000" stroke-width=".1%" />
<line x1="487.000000" y1="592.000000" x2="468.000000" y2="587.000000" stroke="#000000" stroke-width=".1%" />
<line x1="468.000000" y1="587.000000" x2="452.000000" y2="583.000000" stroke="#000000" stroke-width=".1%" />
<line x1="452.000000" y1="583.000000" x2="434.000000" y2="577.000000" stroke="#000000" stroke-width=".1%" />
<line x1="434.000000" y1="577.000000" x2="414.000000" y2="569.000000" stroke="#000000" stroke-width=".1%" />
<line x1="414.000000" y1="569.000000" x2="397.000000" y2="563.000000" stroke="#000000" stroke-width=".1%" />
<line x1="397.000000" y1="563.000000" x2="378.000000" y2="558.000000" stroke="#000000" stroke-width=".1%" />
<line x1="378.000000" y1="558.000000" x2="366.000000" y2="554.000000" stroke="#000000" stroke-width=".1%" />
<line x1="366.000000" y1="554.000000" x2="352.000000" y2="550.000000" stroke="#000000" stroke-width=".1%" />
<line x1="352.000000" y1="550.000000" x2="338.000000" y2="548.000000" stroke="#000000" stroke-width=".1%" />
<line x1="338.000000" y1="548.000000" x2="328.000000" y2="549.000000" stroke="#000000" stroke-width=".1%" />
<line x1="328.000000" y1="549.000000" x2="319.000000" y2="552.000000" stroke="#000000" stroke-width=".1%" />
<line x1="319.000000" y1="552.000000" x2="307.000000" y2="554.000000" stroke="#000000" stroke-width=".1%" />
<line x1="307.000000" y1="554.000000" x2="306.000000" y2="555.000000" stroke="#000000" stroke-width=".1%" />
<line x1="306.000000" y1="555.000000" x2="301.000000" y2="555.000000" stroke="#000000" stroke-width=".1%" />
<line x1="318.000000" y1="534.000000" x2="333.000000" y2="533.000000" stroke="#000000" stroke-width=".1%" />
<line x1="333.000000" y1="533.000000" x2="346.000000" y2="531.000000" stroke="#000000" stroke-width=".1%" />
<line x1="346.000000" y1="531.000000" x2="359.000000" y2="529.000000" stroke="#000000" stroke-width=".1%" />
<line x1="359.000000" y1="529.000000" x2="369.000000" y2="536.000000" stroke="#000000" stroke-width=".1%" />
<line x1="369.000000" y1="536.000000" x2="391.000000" y2="540.000000" stroke="#000000" stroke-width=".1%" />
<line x1="391.000000" y1="540.000000" x2="411.000000" y2="545.000000" stroke="#000000" stroke-width=".1%" />
<line x1="411.000000" y1="545.000000" x2="431.000000" y2="553.000000" stroke="#000000" stroke-width=".1%" />
<line x1="431.000000" y1="553.000000" x2="445.000000" y2="559.000000" stroke="#000000" stroke-width=".1%" />
<line x1="445.000000" y1="559.000000" x2="458.000000" y2="569.000000" stroke="#000000" stroke-width=".1%" />
<line x1="458.000000" y1="569.000000" x2="473.000000" y2="577.000000" stroke="#000000" stroke-width=".1%" />
<line x1="473.000000" y1="577.000000" x2="491.000000" y2="581.000000" stroke="#000000" stroke-width=".1%" />
<line x1="491.000000" y1="581.000000" x2="497.000000" y2="583.000000" stroke="#000000" stroke-width=".1%" />
<line x1="497.000000" y1="583.000000" x2="499.000000" y2="584.000000" stroke="#000000" stroke-width=".1%" />
<line x1="244.000000" y1="531.000000" x2="235.000000" y2="536.000000" stroke="#000000" stroke-width=".1%" />
<line x1="235.000000" y1="536.000000" x2="221.000000" y2="540.000000" stroke="#000000" stroke-width=".1%" />
<line x1="221.000000" y1="540.000000" x2="208.000000" y2="544.000000" stroke="#000000" stroke-width=".1%" />
<line x1="208.000000" y1="544.000000" x2="199.000000" y2="543.000000" stroke="#000000" stroke-width=".1%" />
<line x1="199.000000" y1="543.000000" x2="190.000000" y2="542.000000" stroke="#000000" stroke-width=".1%" />
<line x1="190.000000" y1="542.000000" x2="190.000000" y2="542.000000" stroke="#000000" stroke-width=".1%" />
<line x1="160.000000" y1="524.000000" x2="165.000000" y2="521.000000" stroke="#000000" stroke-width=".1%" />
<line x1="165.000000" y1="521.000000" x2="171.000000" y2="518.000000" stroke="#000000" stroke-width=".1%" />
<line x1="171.000000" y1="518.000000" x2="172.000000" y2="513.000000" stroke="#000000" stroke-width=".1%" />
<line x1="172.000000" y1="513.000000" x2="170.000000" y2="505.000000" stroke="#000000" stroke-width=".1%" />
<line x1="170.000000" y1="505.000000" x2="168.000000" y2="496.000000" stroke="#000000" stroke-width=".1%" />
<line x1="168.000000" y1="496.000000" x2="170.000000" y2="491.000000" stroke="#000000" stroke-width=".1%" />
<line x1="170.000000" y1="491.000000" x2="174.000000" y2="491.000000" stroke="#000000" stroke-width=".1%" />
<line x1="169.000000" y1="522.000000" x2="174.000000" y2="520.000000" stroke="#000000" stroke-width=".1%" />
<line x1="174.000000" y1="520.000000" x2="179.000000" y2="516.000000" stroke="#000000" stroke-width=".1%" />
<line x1="179.000000" y1="516.000000" x2="178.000000" y2="514.000000" stroke="#000000" stroke-width=".1%" />
<line x1="293.000000" y1="508.000000" x2="294.000000" y2="515.000000" stroke="#000000" stroke-width=".1%" />
<line x1="294.000000" y1="515.000000" x2="297.000000" y2="525.000000" stroke="#000000" stroke-width=".1%" />
<line x1="297.000000" y1="525.000000" x2="291.000000" y2="546.000000" stroke="#000000" stroke-width=".1%" />
<line x1="291.000000" y1="546.000000" x2="287.000000" y2="550.000000" stroke="#000000" stroke-width=".1%" />
<line x1="287.000000" y1="550.000000" x2="290.000000" y2="556.000000" stroke="#000000" stroke-width=".1%" />
<line x1="290.000000" y1="556.000000" x2="297.000000" y2="561.000000" stroke="#000000" stroke-width=".1%" />
<line x1="297.000000" y1="561.000000" x2="297.000000" y2="561.000000" stroke="#000000" stroke-width=".1%" />
<line x1="144.000000" y1="543.000000" x2="143.000000" y2="557.000000" stroke="#000000" stroke-width=".1%" />
<line x1="143.000000" y1="557.000000" x2="144.000000" y2="568.000000" stroke="#000000" stroke-width=".1%" />
<line x1="144.000000" y1="568.000000" x2="141.000000" y2="582.000000" stroke="#000000" stroke-width=".1%" />
<line x1="141.000000" y1="582.000000" x2="136.000000" y2="588.000000" stroke="#000000" stroke-width=".1%" />
<line x1="136.000000" y1="588.000000" x2="134.000000" y2="591.000000" stroke="#000000" stroke-width=".1%" />
</svg>
